<svg width="128" height="48" viewBox="0 0 128 48" fill="none" xmlns="http://www.w3.org/2000/svg">
<g clip-path="url(#clip0_378_35)">
<path fill-rule="evenodd" clip-rule="evenodd" d="M27.317 7.58898C24.9244 2.80368 18.0956 2.80367 15.703 7.58895L0.433627 38.1277C-0.915389 40.8257 1.04654 44 4.06307 44H45.5228L27.317 7.58898ZM14.0511 30.6487L9.85373 32.5566L14.0511 34.4646L15.959 38.662L17.8669 34.4646L22.0643 32.5566L17.8669 30.6487L15.959 26.4514L14.0511 30.6487ZM19.8854 5.98365C22.0054 4.92363 24.5834 5.78295 25.6435 7.90299L37.438 31.4429L41.2048 38.9764L42.8186 42.1745L33.2134 42.1692L29.7607 35.2816L17.966 11.7417C16.906 9.62162 17.7653 7.04365 19.8854 5.98365Z" fill="#0EA5E9"/>
<path fill-rule="evenodd" clip-rule="evenodd" d="M22.6149 7.10902C23.0479 6.8923 23.5746 7.06765 23.7914 7.50067L41.0885 42.0619C41.3052 42.4949 41.1299 43.0216 40.6968 43.2384C40.2638 43.4551 39.7371 43.2797 39.5204 42.8467L22.2233 8.28548C22.0065 7.85246 22.1819 7.32574 22.6149 7.10902Z" fill="#0EA5E9"/>
<path fill-rule="evenodd" clip-rule="evenodd" d="M19.0415 8.06416C19.4742 7.84683 20.0012 8.02145 20.2185 8.45417L37.2531 42.3725C37.4704 42.8052 37.2958 43.3322 36.8631 43.5495C36.4304 43.7668 35.9034 43.5922 35.6861 43.1595L18.6515 9.24116C18.4342 8.80844 18.6088 8.28148 19.0415 8.06416Z" fill="#0EA5E9"/>
<path fill-rule="evenodd" clip-rule="evenodd" d="M75.169 11.6648L75.1665 17.9359H78.2339V22.8461H75.1645L75.1625 28.3608C75.1625 28.7643 75.2419 29.1637 75.3962 29.5365C75.5507 29.9092 75.7768 30.2478 76.062 30.5331C76.3472 30.8184 76.686 31.0446 77.0585 31.199C77.4312 31.3534 77.8306 31.4329 78.2339 31.4329V36.3353C77.1869 36.3353 76.15 36.1291 75.1827 35.7283C74.2154 35.3276 73.3365 34.74 72.596 33.9996C71.8556 33.2592 71.2683 32.3799 70.8676 31.4125C70.4671 30.445 70.2607 29.408 70.2607 28.3608L70.2595 11.6648H75.169ZM68.4309 26.9846V26.989L68.4287 35.9446H63.7282L63.731 35.0984C62.3612 35.8854 60.7732 36.3353 59.0801 36.3353C53.916 36.3353 49.7295 32.1488 49.7295 26.9846C49.7295 21.8203 53.916 17.6339 59.0801 17.6339C64.2445 17.6339 68.4309 21.8203 68.4309 26.9846ZM63.7556 26.9846V27L63.7554 27.0136C63.7399 29.5823 61.6528 31.6599 59.0801 31.6599C56.4982 31.6599 54.4048 29.5667 54.4048 26.9846C54.4048 24.4024 56.4982 22.3092 59.0801 22.3092C61.6623 22.3092 63.7556 24.4024 63.7556 26.9846ZM111.632 36.3305L111.639 25.904C111.639 25.5006 111.56 25.1011 111.406 24.7284C111.251 24.3557 111.025 24.017 110.739 23.7317C110.454 23.4465 110.116 23.2202 109.743 23.0658C109.37 22.9114 108.971 22.832 108.567 22.832C108.164 22.832 107.764 22.9114 107.392 23.0658C107.019 23.2202 106.68 23.4465 106.395 23.7317C106.11 24.017 105.884 24.3557 105.729 24.7284C105.575 25.1011 105.495 25.5006 105.495 25.904L105.502 36.3305H100.592L100.593 25.904C100.593 24.8568 100.799 23.8198 101.2 22.8523C101.601 21.8848 102.188 21.0057 102.928 20.2652C103.669 19.5248 104.548 18.9374 105.516 18.5366C106.483 18.1359 107.52 17.9296 108.567 17.9296C109.615 17.9296 110.651 18.1359 111.619 18.5366C112.536 18.9162 113.373 19.4634 114.088 20.1495C114.802 19.4656 115.637 18.9201 116.552 18.5414C117.519 18.1407 118.556 17.9344 119.603 17.9344C120.651 17.9344 121.688 18.1407 122.655 18.5414C123.623 18.9422 124.502 19.5295 125.242 20.27C125.983 21.0105 126.57 21.8896 126.971 22.8571C127.372 23.8246 127.578 24.8616 127.578 25.9088L127.579 36.3353H122.669L122.676 25.9088C122.676 25.5054 122.596 25.1059 122.442 24.7332C122.287 24.3605 122.061 24.0218 121.776 23.7365C121.49 23.4513 121.152 23.225 120.779 23.0706C120.406 22.9162 120.007 22.8368 119.603 22.8368C119.2 22.8368 118.8 22.9162 118.428 23.0706C118.055 23.225 117.716 23.4513 117.431 23.7365C117.146 24.0218 116.92 24.3605 116.765 24.7332C116.611 25.1059 116.531 25.5054 116.531 25.9088L116.538 36.3353L111.632 36.3305Z" fill="#0EA5E9"/>
<path fill-rule="evenodd" clip-rule="evenodd" d="M89.4125 36.3351C94.5766 36.3351 98.7631 32.1487 98.7631 26.9844C98.7631 21.8202 94.5766 17.6338 89.4125 17.6338C84.2481 17.6338 80.062 21.8202 80.062 26.9844C80.062 32.1487 84.2481 36.3351 89.4125 36.3351ZM84.7712 26.9844C84.7712 29.5665 86.8645 31.6597 89.4465 31.6597C92.0287 31.6597 94.1217 29.5665 94.1217 26.9844C94.1217 24.4023 92.0287 22.3091 89.4465 22.3091C86.8645 22.3091 84.7712 24.4023 84.7712 26.9844Z" fill="#0EA5E9"/>
</g>
<defs>
<clipPath id="clip0_378_35">
<rect width="128" height="48" fill="white"/>
</clipPath>
</defs>
</svg>
