<svg width="128" height="48" viewBox="0 0 128 48" fill="none" xmlns="http://www.w3.org/2000/svg">
<path fill-rule="evenodd" clip-rule="evenodd" d="M27.317 7.58898C24.9244 2.80368 18.0956 2.80367 15.703 7.58895L0.433627 38.1277C-0.915389 40.8257 1.04654 44 4.06307 44H45.5228L27.317 7.58898ZM14.0511 30.6487L9.85373 32.5566L14.0511 34.4646L15.959 38.662L17.8669 34.4646L22.0643 32.5566L17.8669 30.6487L15.959 26.4514L14.0511 30.6487ZM19.8854 5.98365C22.0054 4.92363 24.5834 5.78295 25.6435 7.90299L37.438 31.4429L41.2048 38.9764L42.8186 42.1745L33.2134 42.1692L29.7607 35.2816L17.966 11.7417C16.906 9.62162 17.7653 7.04365 19.8854 5.98365Z" fill="white"/>
<path fill-rule="evenodd" clip-rule="evenodd" d="M22.6148 7.10914C23.0478 6.89242 23.5745 7.06777 23.7913 7.50079L41.0884 42.062C41.3051 42.495 41.1298 43.0217 40.6967 43.2385C40.2637 43.4552 39.737 43.2798 39.5203 42.8468L22.2232 8.2856C22.0064 7.85258 22.1818 7.32586 22.6148 7.10914Z" fill="white"/>
<path fill-rule="evenodd" clip-rule="evenodd" d="M19.0417 8.06416C19.4744 7.84683 20.0014 8.02145 20.2187 8.45417L37.2533 42.3725C37.4706 42.8052 37.296 43.3322 36.8633 43.5495C36.4306 43.7668 35.9036 43.5922 35.6863 43.1595L18.6517 9.24116C18.4344 8.80844 18.609 8.28148 19.0417 8.06416Z" fill="white"/>
<path fill-rule="evenodd" clip-rule="evenodd" d="M75.1692 11.6649L75.1667 17.936H78.2341V22.8462H75.1647L75.1627 28.3609C75.1627 28.7644 75.2421 29.1638 75.3964 29.5366C75.5509 29.9093 75.777 30.2479 76.0622 30.5332C76.3474 30.8185 76.6862 31.0447 77.0587 31.1991C77.4314 31.3535 77.8308 31.433 78.2341 31.433V36.3354C77.1871 36.3354 76.1502 36.1292 75.1829 35.7284C74.2156 35.3277 73.3367 34.7401 72.5962 33.9997C71.8558 33.2593 71.2685 32.38 70.8678 31.4126C70.4673 30.4451 70.2609 29.4081 70.2609 28.3609L70.2597 11.6649H75.1692ZM68.4311 26.9847V26.9891L68.4289 35.9447H63.7284L63.7312 35.0985C62.3614 35.8855 60.7734 36.3354 59.0803 36.3354C53.9162 36.3354 49.7297 32.1489 49.7297 26.9847C49.7297 21.8204 53.9162 17.634 59.0803 17.634C64.2447 17.634 68.4311 21.8204 68.4311 26.9847ZM63.7558 26.9847V27.0001L63.7556 27.0137C63.7401 29.5824 61.653 31.66 59.0803 31.66C56.4984 31.66 54.405 29.5668 54.405 26.9847C54.405 24.4025 56.4984 22.3093 59.0803 22.3093C61.6625 22.3093 63.7558 24.4025 63.7558 26.9847ZM111.632 36.3306L111.639 25.9041C111.639 25.5007 111.56 25.1012 111.406 24.7285C111.251 24.3558 111.025 24.0171 110.739 23.7318C110.454 23.4466 110.116 23.2203 109.743 23.0659C109.37 22.9115 108.971 22.8321 108.567 22.8321C108.164 22.8321 107.764 22.9115 107.392 23.0659C107.019 23.2203 106.68 23.4466 106.395 23.7318C106.11 24.0171 105.884 24.3558 105.729 24.7285C105.575 25.1012 105.495 25.5007 105.495 25.9041L105.502 36.3306H100.592L100.593 25.9041C100.593 24.8569 100.799 23.8199 101.2 22.8524C101.601 21.8849 102.188 21.0058 102.928 20.2653C103.669 19.5249 104.548 18.9375 105.516 18.5367C106.483 18.136 107.52 17.9297 108.567 17.9297C109.615 17.9297 110.651 18.136 111.619 18.5367C112.536 18.9163 113.373 19.4635 114.088 20.1496C114.802 19.4657 115.637 18.9202 116.552 18.5415C117.519 18.1408 118.556 17.9345 119.603 17.9345C120.651 17.9345 121.688 18.1408 122.655 18.5415C123.623 18.9423 124.502 19.5296 125.242 20.2701C125.983 21.0106 126.57 21.8897 126.971 22.8572C127.372 23.8247 127.578 24.8617 127.578 25.9089L127.579 36.3354H122.669L122.676 25.9089C122.676 25.5055 122.596 25.106 122.442 24.7333C122.287 24.3606 122.061 24.0219 121.776 23.7366C121.49 23.4514 121.152 23.2251 120.779 23.0707C120.406 22.9163 120.007 22.8369 119.603 22.8369C119.2 22.8369 118.8 22.9163 118.428 23.0707C118.055 23.2251 117.716 23.4514 117.431 23.7366C117.146 24.0219 116.92 24.3606 116.765 24.7333C116.611 25.106 116.531 25.5055 116.531 25.9089L116.538 36.3354L111.632 36.3306Z" fill="white"/>
<path fill-rule="evenodd" clip-rule="evenodd" d="M89.4123 36.3352C94.5764 36.3352 98.7629 32.1488 98.7629 26.9845C98.7629 21.8203 94.5764 17.6339 89.4123 17.6339C84.2479 17.6339 80.0618 21.8203 80.0618 26.9845C80.0618 32.1488 84.2479 36.3352 89.4123 36.3352ZM84.771 26.9845C84.771 29.5666 86.8643 31.6598 89.4463 31.6598C92.0285 31.6598 94.1215 29.5666 94.1215 26.9845C94.1215 24.4024 92.0285 22.3092 89.4463 22.3092C86.8643 22.3092 84.771 24.4024 84.771 26.9845Z" fill="white"/>
</svg>
