<svg width="525" height="144" viewBox="0 0 525 144" fill="none" xmlns="http://www.w3.org/2000/svg">
<path fill-rule="evenodd" clip-rule="evenodd" d="M132.455 13.3407C123.924 -3.72159 99.5755 -3.72161 91.0444 13.3407L36.6006 122.228C31.7906 131.848 38.786 143.167 49.5416 143.167L197.369 143.167L132.455 13.3407ZM85.1545 95.5617L70.1886 102.364L85.1545 109.167L91.9573 124.133L98.76 109.167L113.726 102.364L98.76 95.5617L91.9573 80.5958L85.1545 95.5617ZM105.957 7.6168C113.516 3.83722 122.708 6.90118 126.488 14.4603L168.542 98.3932L181.973 125.254L187.727 136.658L153.479 136.638L141.168 112.08L99.1135 28.1474C95.3339 20.5882 98.3979 11.3964 105.957 7.6168Z" fill="#212224"/>
<path d="M117.088 14.4248L178.762 137.655" stroke="#212224" stroke-width="6.25234" stroke-linecap="round"/>
<path d="M104.352 17.8281L165.09 138.766" stroke="#212224" stroke-width="6.25234" stroke-linecap="round"/>
<path fill-rule="evenodd" clip-rule="evenodd" d="M303.075 27.873L303.066 50.2328H314.003V67.7408H303.059L303.052 87.4037C303.052 88.8422 303.335 90.2665 303.885 91.5955C304.436 92.9244 305.242 94.1319 306.259 95.1491C307.276 96.1662 308.484 96.973 309.812 97.5235C311.141 98.074 312.565 98.3573 314.003 98.3573V115.837C310.27 115.837 306.573 115.102 303.124 113.673C299.675 112.244 296.541 110.149 293.901 107.509C291.261 104.869 289.167 101.734 287.738 98.2847C286.31 94.835 285.574 91.1377 285.574 87.4038L285.57 27.873H303.075ZM279.05 82.4965V82.5124L279.042 114.444H262.282L262.292 111.427C257.408 114.233 251.746 115.837 245.709 115.837C227.296 115.837 212.369 100.91 212.369 82.4965C212.369 64.0832 227.296 49.1562 245.709 49.1562C264.123 49.1562 279.05 64.0832 279.05 82.4965ZM262.38 82.4965L262.38 82.5514L262.379 82.6001C262.324 91.7591 254.882 99.1667 245.709 99.1667C236.503 99.1667 229.039 91.7032 229.039 82.4965C229.039 73.2898 236.503 65.8263 245.709 65.8263C254.916 65.8263 262.38 73.2898 262.38 82.4965ZM433.087 115.82L433.111 78.6437C433.111 77.2053 432.828 75.781 432.278 74.452C431.727 73.1231 430.92 71.9156 429.903 70.8984C428.886 69.8813 427.679 69.0745 426.35 68.524C425.021 67.9735 423.596 67.6902 422.158 67.6902C420.719 67.6902 419.295 67.9735 417.966 68.524C416.637 69.0745 415.43 69.8813 414.412 70.8984C413.395 71.9156 412.589 73.1231 412.038 74.452C411.488 75.7809 411.204 77.2053 411.204 78.6437L411.228 115.82L393.72 115.82L393.724 78.6437C393.724 74.9098 394.46 71.2125 395.889 67.7628C397.318 64.3131 399.412 61.1786 402.052 58.5384C404.693 55.8981 407.827 53.8037 411.277 52.3748C414.727 50.9459 418.424 50.2104 422.158 50.2104C425.892 50.2104 429.589 50.9459 433.039 52.3748C436.307 53.7284 439.292 55.6792 441.842 58.1256C444.388 55.6872 447.367 53.7424 450.627 52.3919C454.077 50.963 457.774 50.2275 461.508 50.2275C465.242 50.2275 468.939 50.963 472.389 52.3919C475.839 53.8208 478.973 55.9152 481.613 58.5555C484.254 61.1957 486.348 64.3302 487.777 67.7799C489.206 71.2296 489.941 74.9269 489.941 78.6608L489.946 115.837L472.438 115.837L472.462 78.6608C472.462 77.2224 472.178 75.798 471.628 74.4691C471.077 73.1402 470.27 71.9327 469.253 70.9155C468.236 69.8984 467.029 69.0916 465.7 68.5411C464.371 67.9906 462.946 67.7073 461.508 67.7073C460.07 67.7073 458.645 67.9906 457.316 68.5411C455.987 69.0916 454.78 69.8984 453.763 70.9155C452.746 71.9327 451.939 73.1402 451.388 74.4691C450.838 75.798 450.554 77.2224 450.554 78.6608L450.578 115.837L433.087 115.82Z" fill="#212224"/>
<path fill-rule="evenodd" clip-rule="evenodd" d="M353.86 115.837C372.273 115.837 387.2 100.91 387.2 82.4966C387.2 64.0832 372.273 49.1562 353.86 49.1562C335.446 49.1562 320.52 64.0832 320.52 82.4966C320.52 100.91 335.446 115.837 353.86 115.837ZM337.311 82.4963C337.311 91.703 344.775 99.1665 353.981 99.1665C363.188 99.1665 370.651 91.703 370.651 82.4963C370.651 73.2896 363.188 65.8262 353.981 65.8262C344.775 65.8262 337.311 73.2896 337.311 82.4963Z" fill="#212224"/>
</svg>
