<svg width="525" height="144" viewBox="0 0 525 144" fill="none" xmlns="http://www.w3.org/2000/svg">
<path fill-rule="evenodd" clip-rule="evenodd" d="M132.455 13.3412C123.924 -3.7211 99.5755 -3.72112 91.0444 13.3411L36.6006 122.229C31.7906 131.849 38.786 143.167 49.5416 143.167L197.369 143.167L132.455 13.3412ZM85.1545 95.5622L70.1886 102.365L85.1545 109.168L91.9573 124.134L98.76 109.168L113.726 102.365L98.76 95.5622L91.9573 80.5963L85.1545 95.5622ZM105.957 7.61729C113.516 3.8377 122.708 6.90167 126.488 14.4608L168.542 98.3937L181.973 125.255L187.727 136.658L153.479 136.639L141.168 112.081L99.1135 28.1479C95.3339 20.5887 98.3979 11.3968 105.957 7.61729Z" fill="#572531"/>
<path d="M117.088 14.4258L178.762 137.656" stroke="#572531" stroke-width="6.25234" stroke-linecap="round"/>
<path d="M104.352 17.8291L165.09 138.767" stroke="#572531" stroke-width="6.25234" stroke-linecap="round"/>
<path fill-rule="evenodd" clip-rule="evenodd" d="M303.075 27.874L303.066 50.2338H314.003V67.7417H303.059L303.052 87.4047C303.052 88.8432 303.335 90.2675 303.885 91.5965C304.436 92.9254 305.242 94.1329 306.259 95.15C307.276 96.1672 308.484 96.974 309.812 97.5245C311.141 98.0749 312.565 98.3583 314.003 98.3583V115.838C310.27 115.838 306.573 115.103 303.124 113.674C299.675 112.245 296.541 110.15 293.901 107.51C291.261 104.87 289.167 101.735 287.738 98.2857C286.31 94.836 285.574 91.1386 285.574 87.4047L285.57 27.874H303.075ZM279.05 82.4975V82.5134L279.042 114.445H262.282L262.292 111.428C257.408 114.234 251.746 115.838 245.709 115.838C227.296 115.838 212.369 100.911 212.369 82.4975C212.369 64.0841 227.296 49.1572 245.709 49.1572C264.123 49.1572 279.05 64.0841 279.05 82.4975ZM262.38 82.4975L262.38 82.5524L262.379 82.6011C262.324 91.7601 254.882 99.1676 245.709 99.1676C236.503 99.1676 229.039 91.7042 229.039 82.4975C229.039 73.2908 236.503 65.8273 245.709 65.8273C254.916 65.8273 262.38 73.2908 262.38 82.4975ZM433.087 115.821L433.111 78.6447C433.111 77.2063 432.828 75.7819 432.278 74.453C431.727 73.124 430.92 71.9165 429.903 70.8994C428.886 69.8823 427.679 69.0755 426.35 68.525C425.021 67.9745 423.596 67.6912 422.158 67.6912C420.719 67.6912 419.295 67.9745 417.966 68.525C416.637 69.0755 415.43 69.8823 414.412 70.8994C413.395 71.9165 412.589 73.124 412.038 74.453C411.488 75.7819 411.204 77.2063 411.204 78.6447L411.228 115.821L393.72 115.821L393.724 78.6447C393.724 74.9108 394.46 71.2134 395.889 67.7638C397.318 64.3141 399.412 61.1796 402.052 58.5393C404.693 55.8991 407.827 53.8047 411.277 52.3758C414.727 50.9469 418.424 50.2114 422.158 50.2114C425.892 50.2114 429.589 50.9469 433.039 52.3758C436.307 53.7294 439.292 55.6802 441.842 58.1266C444.388 55.6882 447.367 53.7433 450.627 52.3929C454.077 50.964 457.774 50.2285 461.508 50.2285C465.242 50.2285 468.939 50.964 472.389 52.3929C475.839 53.8218 478.973 55.9162 481.613 58.5564C484.254 61.1967 486.348 64.3312 487.777 67.7809C489.206 71.2306 489.941 74.9279 489.941 78.6618L489.946 115.838L472.438 115.838L472.462 78.6618C472.462 77.2234 472.178 75.799 471.628 74.4701C471.077 73.1411 470.27 71.9336 469.253 70.9165C468.236 69.8994 467.029 69.0925 465.7 68.5421C464.371 67.9916 462.946 67.7083 461.508 67.7083C460.07 67.7083 458.645 67.9916 457.316 68.5421C455.987 69.0925 454.78 69.8994 453.763 70.9165C452.746 71.9336 451.939 73.1411 451.388 74.4701C450.838 75.799 450.554 77.2234 450.554 78.6618L450.578 115.838L433.087 115.821Z" fill="#572531"/>
<path fill-rule="evenodd" clip-rule="evenodd" d="M353.86 115.838C372.273 115.838 387.2 100.911 387.2 82.4975C387.2 64.0842 372.273 49.1572 353.86 49.1572C335.446 49.1572 320.52 64.0842 320.52 82.4975C320.52 100.911 335.446 115.838 353.86 115.838ZM337.311 82.4973C337.311 91.704 344.775 99.1674 353.981 99.1674C363.188 99.1674 370.651 91.704 370.651 82.4973C370.651 73.2906 363.188 65.8271 353.981 65.8271C344.775 65.8271 337.311 73.2906 337.311 82.4973Z" fill="#572531"/>
</svg>
