<svg width="48" height="44" viewBox="0 0 48 44" fill="none" xmlns="http://www.w3.org/2000/svg">
<path d="M0 0H48V44L24 34.1031L0 44V0Z" fill="#EF4444"/>
<path d="M7.008 23V12.57H13.966V14.25H8.912V17.134H13.336V18.814H8.912V23H7.008ZM15.2111 23V12.57H19.0891C19.7985 12.57 20.4238 12.7007 20.9651 12.962C21.5158 13.214 21.9451 13.5873 22.2531 14.082C22.5611 14.5673 22.7151 15.16 22.7151 15.86C22.7151 16.5787 22.5425 17.19 22.1971 17.694C21.8611 18.198 21.4038 18.5713 20.8251 18.814L23.2191 23H21.0631L18.5011 18.422L19.7331 19.15H17.1151V23H15.2111ZM17.1151 17.47H19.1171C19.4625 17.47 19.7611 17.4047 20.0131 17.274C20.2651 17.134 20.4611 16.9427 20.6011 16.7C20.7411 16.4573 20.8111 16.1773 20.8111 15.86C20.8111 15.5333 20.7411 15.2533 20.6011 15.02C20.4611 14.7773 20.2651 14.5907 20.0131 14.46C19.7611 14.32 19.4625 14.25 19.1171 14.25H17.1151V17.47ZM24.467 23V12.57H31.397V14.25H26.371V16.924H31.117V18.604H26.371V21.32H31.397V23H24.467ZM32.7932 23V12.57H39.7232V14.25H34.6972V16.924H39.4432V18.604H34.6972V21.32H39.7232V23H32.7932Z" fill="white"/>
</svg>
