<svg width="735" height="628" viewBox="0 0 735 628" fill="none" xmlns="http://www.w3.org/2000/svg">
<g clip-path="url(#clip0_280_23)">
<path d="M120.65 145.3C120.65 145.3 220.97 182.72 223.35 181.8C225.73 180.89 282.42 103.44 284.35 102.4C286.28 101.36 293.1 103.39 293.61 106.91C294.12 110.44 299.88 209.94 299.88 209.94C299.88 209.94 398.22 235.11 399.01 237.1C402.38 245.47 398.81 253.17 391.84 256.2C383.82 259.69 300.35 294.09 300.35 294.09C300.35 294.09 296.91 386.29 296.86 388.27C296.67 395.68 288.19 399.67 282.07 394.83C275.95 389.99 221.32 314.3 218.25 314.93C215.17 315.56 127.33 338.53 122.7 338.36C117.85 338.18 112.65 333.21 114.31 325.12C115.87 317.53 166.42 252.22 166.42 252.22C166.42 252.22 116.9 166.1 115.76 160.56C114.62 155.02 116.57 147.84 120.65 145.29V145.3Z" fill="#E29C00"/>
<path d="M123.36 141.81C123.36 141.81 222.91 173.35 225.28 172.44C227.66 171.53 284.35 94.08 286.28 93.04C288.21 92 295.03 94.03 295.54 97.55C296.05 101.08 301.81 200.58 301.81 200.58C301.81 200.58 398.02 234.72 398.85 236.69C399.68 238.66 399.62 244.12 392.43 246.56C385.23 249 302.36 282.65 302.36 282.65C302.36 282.65 297.46 380.8 297.23 382.77C296.99 384.74 290.12 390.32 284 385.48C277.88 380.64 223.25 304.95 220.18 305.58C217.1 306.21 129.07 330.34 124.63 329.01C120.19 327.68 117.16 326.21 117.53 319.4C117.76 315.18 170.77 239.72 170.77 239.72C170.77 239.72 120.06 158.1 118.92 152.56C117.79 147.02 119.27 144.37 123.35 141.82L123.36 141.81Z" fill="#FFD45A"/>
<path d="M428.23 280.11C428.23 280.11 448.08 286.4 448.55 286.22C449.02 286.04 460.33 270.6 460.71 270.39C461.09 270.18 462.45 270.59 462.56 271.29C462.66 271.99 463.81 291.83 463.81 291.83C463.81 291.83 482.99 298.64 483.16 299.03C483.33 299.42 483.31 300.51 481.88 301C480.45 301.49 463.92 308.2 463.92 308.2C463.92 308.2 462.94 327.77 462.9 328.16C462.85 328.55 461.48 329.66 460.26 328.7C459.04 327.74 448.15 312.64 447.54 312.77C446.93 312.9 429.38 317.71 428.49 317.44C427.6 317.17 427 316.88 427.07 315.52C427.12 314.68 437.69 299.63 437.69 299.63C437.69 299.63 427.58 283.36 427.35 282.25C427.12 281.15 427.42 280.62 428.23 280.11Z" fill="#FFE578"/>
<path d="M151.17 360.43C151.17 360.43 171.02 366.72 171.49 366.54C171.96 366.36 183.27 350.92 183.65 350.71C184.03 350.5 185.39 350.91 185.5 351.61C185.6 352.31 186.75 372.15 186.75 372.15C186.75 372.15 205.93 378.96 206.1 379.35C206.27 379.74 206.25 380.83 204.82 381.32C203.39 381.81 186.86 388.52 186.86 388.52C186.86 388.52 185.88 408.09 185.84 408.48C185.79 408.87 184.42 409.99 183.2 409.02C181.98 408.06 171.09 392.96 170.48 393.09C169.87 393.22 152.32 398.03 151.43 397.76C150.54 397.49 149.94 397.2 150.01 395.84C150.06 395 160.63 379.95 160.63 379.95C160.63 379.95 150.52 363.68 150.29 362.57C150.06 361.47 150.36 360.94 151.17 360.43Z" fill="#FFE578"/>
<path d="M335.531 137.75C335.531 137.75 345.661 140.96 345.901 140.87C346.141 140.78 351.911 132.9 352.101 132.79C352.301 132.68 352.991 132.89 353.041 133.25C353.091 133.61 353.681 143.73 353.681 143.73C353.681 143.73 363.471 147.2 363.551 147.4C363.631 147.6 363.631 148.16 362.901 148.4C362.171 148.65 353.741 152.07 353.741 152.07C353.741 152.07 353.241 162.05 353.221 162.25C353.201 162.45 352.501 163.02 351.871 162.53C351.251 162.04 345.691 154.34 345.381 154.4C345.071 154.46 336.111 156.92 335.661 156.78C335.211 156.64 334.901 156.5 334.941 155.8C334.961 155.37 340.361 147.7 340.361 147.7C340.361 147.7 335.201 139.4 335.091 138.83C334.971 138.27 335.131 138 335.541 137.74L335.531 137.75Z" fill="#FFE578"/>
<path d="M167.45 113.25C167.45 113.25 177.58 116.46 177.82 116.36C178.06 116.27 183.83 108.39 184.02 108.28C184.22 108.17 184.91 108.38 184.96 108.74C185.01 109.1 185.6 119.22 185.6 119.22C185.6 119.22 195.39 122.69 195.47 122.89C195.55 123.09 195.55 123.65 194.82 123.89C194.09 124.14 185.66 127.56 185.66 127.56C185.66 127.56 185.16 137.54 185.14 137.74C185.12 137.94 184.42 138.51 183.79 138.02C183.17 137.53 177.61 129.83 177.3 129.89C176.99 129.95 168.03 132.41 167.58 132.27C167.13 132.13 166.82 131.99 166.86 131.29C166.88 130.86 172.28 123.19 172.28 123.19C172.28 123.19 167.12 114.89 167.01 114.32C166.89 113.76 167.05 113.49 167.46 113.23L167.45 113.25Z" fill="#FFE578"/>
<path d="M76.1296 256.97C76.1296 256.97 86.2596 260.18 86.4996 260.08C86.7396 259.99 92.5096 252.11 92.6996 252C92.8996 251.89 93.5896 252.1 93.6396 252.46C93.6896 252.82 94.2796 262.94 94.2796 262.94C94.2796 262.94 104.07 266.41 104.15 266.61C104.23 266.81 104.23 267.37 103.5 267.61C102.77 267.86 94.3396 271.28 94.3396 271.28C94.3396 271.28 93.8396 281.26 93.8196 281.46C93.7996 281.66 93.0996 282.23 92.4696 281.74C91.8496 281.25 86.2896 273.55 85.9796 273.61C85.6696 273.67 76.7096 276.13 76.2596 275.99C75.8096 275.85 75.4996 275.71 75.5396 275.01C75.5596 274.58 80.9596 266.91 80.9596 266.91C80.9596 266.91 75.7996 258.61 75.6896 258.04C75.5696 257.48 75.7296 257.21 76.1396 256.95L76.1296 256.97Z" fill="#FFE578"/>
<path d="M28.59 175.25C28.59 175.25 45.21 180.52 45.61 180.36C46.01 180.21 55.47 167.27 55.8 167.1C56.12 166.93 57.26 167.26 57.35 167.85C57.44 168.44 58.4 185.05 58.4 185.05C58.4 185.05 74.47 190.75 74.6 191.08C74.74 191.41 74.73 192.32 73.53 192.73C72.33 193.14 58.49 198.76 58.49 198.76C58.49 198.76 57.67 215.15 57.63 215.48C57.59 215.81 56.44 216.74 55.42 215.93C54.4 215.12 45.28 202.48 44.76 202.59C44.25 202.7 29.55 206.72 28.81 206.5C28.07 206.28 27.56 206.03 27.62 204.9C27.66 204.2 36.51 191.59 36.51 191.59C36.51 191.59 28.04 177.96 27.85 177.04C27.66 176.12 27.91 175.67 28.59 175.25Z" fill="#FFE578"/>
<path d="M249.54 428.82C249.54 428.82 254.6 430.42 254.73 430.38C254.85 430.33 257.74 426.39 257.83 426.34C257.93 426.29 258.28 426.39 258.3 426.57C258.33 426.75 258.62 431.81 258.62 431.81C258.62 431.81 263.52 433.55 263.56 433.65C263.6 433.75 263.6 434.03 263.23 434.15C262.86 434.27 258.65 435.99 258.65 435.99C258.65 435.99 258.4 440.98 258.39 441.08C258.38 441.18 258.03 441.46 257.72 441.22C257.41 440.97 254.63 437.12 254.47 437.15C254.31 437.18 249.83 438.41 249.61 438.34C249.38 438.27 249.23 438.2 249.25 437.85C249.26 437.64 251.96 433.8 251.96 433.8C251.96 433.8 249.38 429.65 249.32 429.37C249.26 429.09 249.34 428.95 249.55 428.82H249.54Z" fill="#FFE578"/>
<path d="M329.761 462.99C329.761 462.99 334.821 464.59 334.951 464.55C335.071 464.5 337.961 460.56 338.051 460.51C338.151 460.46 338.501 460.56 338.521 460.74C338.541 460.92 338.841 465.98 338.841 465.98C338.841 465.98 343.741 467.72 343.781 467.82C343.821 467.92 343.821 468.2 343.451 468.32C343.081 468.44 338.871 470.16 338.871 470.16C338.871 470.16 338.621 475.15 338.611 475.25C338.601 475.35 338.251 475.63 337.941 475.39C337.631 475.14 334.851 471.29 334.691 471.32C334.531 471.35 330.051 472.58 329.831 472.51C329.601 472.44 329.451 472.37 329.471 472.02C329.481 471.81 332.181 467.97 332.181 467.97C332.181 467.97 329.601 463.82 329.541 463.54C329.481 463.26 329.561 463.12 329.771 462.99H329.761Z" fill="#FFE578"/>
<path d="M83.4002 382.88C83.4002 382.88 88.4602 384.48 88.5902 384.44C88.7102 384.39 91.6002 380.45 91.6902 380.4C91.7902 380.35 92.1402 380.45 92.1602 380.63C92.1902 380.81 92.4802 385.87 92.4802 385.87C92.4802 385.87 97.3802 387.61 97.4202 387.71C97.4602 387.81 97.4602 388.09 97.0902 388.21C96.7202 388.33 92.5102 390.05 92.5102 390.05C92.5102 390.05 92.2602 395.04 92.2502 395.14C92.2402 395.24 91.8902 395.52 91.5802 395.28C91.2702 395.03 88.4902 391.18 88.3302 391.21C88.1702 391.24 83.6902 392.47 83.4702 392.4C83.2402 392.33 83.0902 392.26 83.1102 391.91C83.1202 391.7 85.8202 387.86 85.8202 387.86C85.8202 387.86 83.2402 383.71 83.1802 383.43C83.1202 383.15 83.2002 383.01 83.4102 382.88H83.4002Z" fill="#FFE578"/>
<path d="M246.68 484.42C246.68 484.42 255.65 487.26 255.87 487.18C256.08 487.1 261.19 480.12 261.37 480.02C261.54 479.93 262.16 480.11 262.2 480.43C262.25 480.75 262.77 489.72 262.77 489.72C262.77 489.72 271.44 492.8 271.52 492.97C271.59 493.15 271.59 493.64 270.94 493.86C270.29 494.08 262.82 497.11 262.82 497.11C262.82 497.11 262.38 505.96 262.36 506.13C262.34 506.31 261.72 506.81 261.17 506.37C260.62 505.93 255.69 499.11 255.42 499.17C255.14 499.23 247.21 501.4 246.81 501.28C246.41 501.16 246.14 501.03 246.17 500.41C246.19 500.03 250.97 493.23 250.97 493.23C250.97 493.23 246.4 485.87 246.3 485.37C246.2 484.87 246.33 484.63 246.7 484.4L246.68 484.42Z" fill="#FFE578"/>
<path d="M413.399 203C413.399 203 418.459 204.6 418.589 204.56C418.709 204.51 421.599 200.57 421.689 200.52C421.789 200.47 422.139 200.57 422.159 200.75C422.189 200.93 422.479 205.99 422.479 205.99C422.479 205.99 427.379 207.73 427.419 207.83C427.459 207.93 427.459 208.21 427.089 208.33C426.719 208.45 422.509 210.17 422.509 210.17C422.509 210.17 422.259 215.16 422.249 215.26C422.239 215.36 421.889 215.64 421.579 215.4C421.269 215.16 418.489 211.3 418.329 211.33C418.169 211.36 413.689 212.59 413.469 212.52C413.239 212.45 413.089 212.38 413.109 212.03C413.119 211.82 415.819 207.98 415.819 207.98C415.819 207.98 413.239 203.83 413.179 203.55C413.119 203.27 413.199 203.13 413.409 203H413.399Z" fill="#FFE578"/>
<path d="M328.259 382.42C328.259 382.42 338.389 385.63 338.629 385.54C338.869 385.45 344.639 377.57 344.829 377.46C345.029 377.35 345.719 377.56 345.769 377.92C345.819 378.28 346.409 388.4 346.409 388.4C346.409 388.4 356.199 391.87 356.279 392.07C356.359 392.27 356.359 392.83 355.629 393.07C354.899 393.32 346.469 396.74 346.469 396.74C346.469 396.74 345.969 406.72 345.949 406.92C345.929 407.12 345.229 407.69 344.599 407.2C343.979 406.71 338.419 399.01 338.109 399.07C337.799 399.13 328.839 401.59 328.389 401.45C327.939 401.31 327.629 401.17 327.669 400.47C327.689 400.04 333.089 392.37 333.089 392.37C333.089 392.37 327.929 384.07 327.819 383.5C327.699 382.94 327.859 382.67 328.269 382.41L328.259 382.42Z" fill="#FFE578"/>
<path d="M205.43 42.1801C205.43 42.1801 227.11 49.0501 227.63 48.8501C228.15 48.6501 240.5 31.7801 240.91 31.5601C241.33 31.3301 242.82 31.7701 242.93 32.5401C243.04 33.3101 244.3 54.9801 244.3 54.9801C244.3 54.9801 265.26 62.4201 265.44 62.8401C265.62 63.2701 265.61 64.4601 264.04 64.9901C262.47 65.5201 244.42 72.8501 244.42 72.8501C244.42 72.8501 243.35 94.2301 243.3 94.6601C243.25 95.0901 241.75 96.3001 240.42 95.2501C239.09 94.2001 227.19 77.7101 226.52 77.8501C225.85 77.9901 206.68 83.2401 205.71 82.9501C204.74 82.6601 204.08 82.3401 204.16 80.8601C204.21 79.9401 215.76 63.5101 215.76 63.5101C215.76 63.5101 204.72 45.7301 204.47 44.5301C204.22 43.3201 204.55 42.7501 205.43 42.1901V42.1801Z" fill="#FFE578"/>
<path d="M372.75 28.7101C372.75 28.7101 394.69 22.7301 395.02 22.2801C395.35 21.8301 396.58 0.960097 396.81 0.550097C397.04 0.130097 398.53 -0.299903 399.04 0.280097C399.55 0.870097 412.35 18.4001 412.35 18.4001C412.35 18.4001 433.99 13.2901 434.38 13.5501C434.76 13.8101 435.4 14.8201 434.37 16.1101C433.34 17.4101 422.14 33.3501 422.14 33.3501C422.14 33.3501 432.83 51.8901 433.02 52.2801C433.21 52.6701 432.61 54.5001 430.92 54.3401C429.23 54.1801 410.3 46.7701 409.81 47.2501C409.32 47.7301 396.06 62.5401 395.09 62.8201C394.12 63.1001 393.39 63.1901 392.66 61.9001C392.2 61.1001 393 41.0301 393 41.0301C393 41.0301 374.08 32.0801 373.22 31.2001C372.36 30.3201 372.32 29.6601 372.76 28.7101H372.75Z" fill="#FFE578"/>
<path d="M284.9 106.14C285.61 108.56 291.51 200.97 291.14 235.67C290.77 270.37 251.26 286.16 223.83 277.46C196.4 268.76 125.72 150.19 125.63 148.18C125.54 146.17 126.91 146.1 129.81 146.68C132.71 147.26 224.22 176.33 226.35 176.06C228.48 175.79 277.48 108.75 279.61 105.43C281.73 102.11 284.1 103.37 284.91 106.13L284.9 106.14Z" fill="#FFE578"/>
<path d="M277.4 117.51C280.75 115.77 274.74 218.73 271.67 221.49C268.6 224.26 141.95 159.8 143.05 157.86C144.15 155.92 230.96 189.22 233.63 188.67C236.3 188.12 235.89 188.21 235.89 188.21C235.89 188.21 276.05 118.21 277.4 117.51Z" fill="#FFFCC7"/>
<path d="M399.02 237.11C399.02 237.11 399.14 237.42 399.21 237.94C399.4 239.52 399.05 243.08 393.13 246.3C385.25 250.59 302.36 282.64 302.36 282.64L297.23 382.76C297.23 382.76 296.44 386.73 290.01 387.43C283.58 388.13 279.03 380.88 279.03 380.88L220.18 305.57C220.18 305.57 133.58 327.8 127.46 329.27C121.34 330.74 115.62 327.31 117.53 319.39C119.43 311.47 170.77 239.71 170.77 239.71C170.77 239.71 127.26 313.71 127.82 314.88C128.38 316.05 128.37 320.7 138.89 318.06C149.41 315.42 223.84 293.76 225.35 294.09C226.86 294.42 287.48 374.34 288 374.55C288.52 374.76 290.65 375.77 290.46 369.08C290.26 362.39 292.91 273.36 293.4 272.61C293.89 271.87 381.82 244.17 390.49 241.81C399.16 239.46 399.01 237.1 399.01 237.1L399.02 237.11Z" fill="#F9BB1E"/>
<path d="M312.77 278.6C312.77 278.6 713.9 573.07 733.32 589.03C733.32 589.03 739.12 615.75 704.56 627.76L301.63 304.1L302.36 282.64L312.76 278.6H312.77Z" fill="#FFD45A"/>
<path d="M422.799 359.44C422.799 359.44 418.369 373.46 402.859 385.41L593.379 538.69C593.379 538.69 617.269 530.01 620.759 505.66L422.789 359.44H422.799Z" fill="#3A2E28"/>
<path d="M312.52 278.93L302.24 282.8L301.57 304.17L402.84 385.45L409.38 379.69C409.38 379.69 308.94 301.88 307.7 299.37C306.46 296.86 306.42 287.37 307.76 284.85C309.11 282.32 313.75 279.88 313.75 279.88L312.51 278.93H312.52Z" fill="#E29C00"/>
<path d="M733.33 589.03C733.33 589.03 739.38 596.91 726.78 613.17C714.19 629.44 704.57 627.76 704.57 627.76L593.4 538.69C593.4 538.69 596.53 538.43 605.01 531.92C605.01 531.92 702.42 608.33 712.16 609.73C721.9 611.14 734.46 596.49 733.33 589.03Z" fill="#E29C00"/>
<path d="M409.38 379.7L605 531.92C605 531.92 601.58 535.94 593.39 538.69L402.83 385.45C402.83 385.45 406.43 382.85 409.37 379.69L409.38 379.7Z" fill="black"/>
<path d="M422.801 359.44L620.771 505.66C620.771 505.66 620.421 509.38 617.871 515.82L419.471 366.54C419.471 366.54 422.141 362.11 422.801 359.44Z" fill="#59514D"/>
<path d="M733.329 589.03C733.329 589.03 731.219 597.97 719.729 591.53C708.239 585.09 617.869 515.83 617.869 515.83C617.869 515.83 620.769 510.12 620.769 505.67L733.319 589.04L733.329 589.03Z" fill="#FFE578"/>
<path d="M313.911 279.61L423.071 359.07C423.071 359.07 421.081 363.84 419.851 366.07L310.221 281.91C310.221 281.91 312.481 280.37 313.911 279.61Z" fill="#FFE578"/>
<path d="M237.21 127.88C237.21 127.88 255.29 143.41 256.11 146.37C256.5 147.76 234.95 152.17 234.95 152.17L256.16 150.21C256.99 151.31 245.14 184.79 245.14 184.79C245.14 184.79 259.32 151.84 259.81 151.8C260.31 151.77 273.05 165.98 273.05 165.98L261.86 149.99L291.89 151.92C291.89 151.92 262.5 148.03 262.28 147.6C262.06 147.17 273.63 144.01 273.63 144.01C273.63 144.01 261.92 145.93 261.48 145.96C261.04 145.99 275.31 108.81 275.31 108.81C275.31 108.81 260.11 144.17 259.73 144.2C259.36 144.23 256.88 134.5 256.88 134.5C256.88 134.5 258.2 144.75 257.89 144.83C257.58 144.91 237.19 127.88 237.19 127.88H237.21Z" fill="white"/>
<path d="M58.3203 82.2102C58.3203 82.2102 82.1503 81.9102 84.7303 83.5902C85.9403 84.3802 72.6903 101.93 72.6903 101.93L87.3103 86.4402C88.6603 86.7202 101.9 119.66 101.9 119.66C101.9 119.66 90.7503 85.5602 91.1003 85.2102C91.4503 84.8502 110.41 87.0902 110.41 87.0902L91.4403 82.5002L115.25 64.0902C115.25 64.0902 90.6203 80.6002 90.1803 80.4302C89.7403 80.2602 96.3203 70.2402 96.3203 70.2402C96.3203 70.2402 88.8103 79.4202 88.5003 79.7302C88.1903 80.0402 74.3203 42.7202 74.3203 42.7202C74.3203 42.7202 86.2903 79.3002 86.0303 79.5702C85.7703 79.8402 77.4703 74.1702 77.4703 74.1702C77.4703 74.1702 85.2403 80.9802 85.0603 81.2502C84.8803 81.5202 58.3303 82.2202 58.3303 82.2202L58.3203 82.2102Z" fill="#FFE578"/>
<path d="M510.98 214.07C510.98 214.07 487.19 215.52 484.54 213.97C483.29 213.24 495.68 195.07 495.68 195.07L481.83 211.25C480.47 211.04 465.65 178.77 465.65 178.77C465.65 178.77 478.43 212.29 478.1 212.66C477.77 213.03 458.72 211.71 458.72 211.71L477.89 215.38L455 234.92C455 234.92 478.8 217.24 479.25 217.39C479.7 217.54 473.61 227.87 473.61 227.87C473.61 227.87 480.67 218.33 480.96 218.01C481.25 217.68 496.92 254.29 496.92 254.29C496.92 254.29 483.19 218.33 483.45 218.05C483.7 217.77 492.26 223.03 492.26 223.03C492.26 223.03 484.17 216.6 484.34 216.33C484.5 216.06 511 214.07 511 214.07H510.98Z" fill="#FFE578"/>
<path d="M417.521 132.79C417.521 132.79 434.541 116.1 437.561 115.54C438.981 115.27 441.531 137.11 441.531 137.11L441.391 115.81C442.561 115.08 474.901 129.74 474.901 129.74C474.901 129.74 443.281 112.8 443.291 112.3C443.291 111.8 458.551 100.32 458.551 100.32L441.671 110.11L446.161 80.3501C446.161 80.3501 439.771 109.3 439.331 109.48C438.891 109.66 436.721 97.8701 436.721 97.8701C436.721 97.8701 437.641 109.7 437.631 110.14C437.631 110.58 401.801 93.1901 401.801 93.1901C401.801 93.1901 435.731 111.36 435.731 111.73C435.731 112.1 425.821 113.74 425.821 113.74C425.821 113.74 436.141 113.3 436.201 113.61C436.261 113.92 417.541 132.78 417.541 132.78L417.521 132.79Z" fill="#FFE578"/>
<path d="M171.98 457.07C171.98 457.07 148.19 458.52 145.54 456.97C144.29 456.24 156.68 438.07 156.68 438.07L142.83 454.25C141.47 454.04 126.65 421.77 126.65 421.77C126.65 421.77 139.43 455.29 139.1 455.66C138.77 456.03 119.72 454.71 119.72 454.71L138.89 458.38L116 477.92C116 477.92 139.8 460.24 140.25 460.39C140.7 460.54 134.61 470.87 134.61 470.87C134.61 470.87 141.67 461.33 141.96 461.01C142.25 460.68 157.92 497.29 157.92 497.29C157.92 497.29 144.19 461.33 144.45 461.05C144.7 460.77 153.26 466.03 153.26 466.03C153.26 466.03 145.17 459.6 145.34 459.33C145.5 459.06 172 457.07 172 457.07H171.98Z" fill="#FFE578"/>
<path d="M55.98 297.07C55.98 297.07 32.19 298.52 29.54 296.97C28.29 296.24 40.68 278.07 40.68 278.07L26.83 294.25C25.47 294.04 10.65 261.77 10.65 261.77C10.65 261.77 23.43 295.29 23.1 295.66C22.77 296.03 3.72 294.71 3.72 294.71L22.89 298.38L0 317.92C0 317.92 23.8 300.24 24.25 300.39C24.7 300.54 18.61 310.87 18.61 310.87C18.61 310.87 25.67 301.33 25.96 301.01C26.25 300.68 41.92 337.29 41.92 337.29C41.92 337.29 28.19 301.33 28.45 301.05C28.7 300.77 37.26 306.03 37.26 306.03C37.26 306.03 29.17 299.6 29.34 299.33C29.5 299.06 56 297.07 56 297.07H55.98Z" fill="#FFE578"/>
<g opacity="0.5" filter="url(#filter0_f_280_23)">
<circle cx="245" cy="250" r="154" fill="#FFE578"/>
</g>
<g opacity="0.5" filter="url(#filter1_f_280_23)">
<circle cx="280" cy="434" r="92" fill="#FFE578"/>
</g>
<g opacity="0.5" filter="url(#filter2_f_280_23)">
<circle cx="400" cy="185" r="92" fill="#FFE578"/>
</g>
<g opacity="0.5" filter="url(#filter3_f_280_23)">
<circle cx="166" cy="185" r="92" fill="#FFE578"/>
</g>
<g opacity="0.5" filter="url(#filter4_f_280_23)">
<circle cx="166" cy="368" r="92" fill="#FFE578"/>
</g>
</g>
<defs>
<filter id="filter0_f_280_23" x="-9" y="-4" width="508" height="508" filterUnits="userSpaceOnUse" color-interpolation-filters="sRGB">
<feFlood flood-opacity="0" result="BackgroundImageFix"/>
<feBlend mode="normal" in="SourceGraphic" in2="BackgroundImageFix" result="shape"/>
<feGaussianBlur stdDeviation="50" result="effect1_foregroundBlur_280_23"/>
</filter>
<filter id="filter1_f_280_23" x="88" y="242" width="384" height="384" filterUnits="userSpaceOnUse" color-interpolation-filters="sRGB">
<feFlood flood-opacity="0" result="BackgroundImageFix"/>
<feBlend mode="normal" in="SourceGraphic" in2="BackgroundImageFix" result="shape"/>
<feGaussianBlur stdDeviation="50" result="effect1_foregroundBlur_280_23"/>
</filter>
<filter id="filter2_f_280_23" x="208" y="-7" width="384" height="384" filterUnits="userSpaceOnUse" color-interpolation-filters="sRGB">
<feFlood flood-opacity="0" result="BackgroundImageFix"/>
<feBlend mode="normal" in="SourceGraphic" in2="BackgroundImageFix" result="shape"/>
<feGaussianBlur stdDeviation="50" result="effect1_foregroundBlur_280_23"/>
</filter>
<filter id="filter3_f_280_23" x="-26" y="-7" width="384" height="384" filterUnits="userSpaceOnUse" color-interpolation-filters="sRGB">
<feFlood flood-opacity="0" result="BackgroundImageFix"/>
<feBlend mode="normal" in="SourceGraphic" in2="BackgroundImageFix" result="shape"/>
<feGaussianBlur stdDeviation="50" result="effect1_foregroundBlur_280_23"/>
</filter>
<filter id="filter4_f_280_23" x="-26" y="176" width="384" height="384" filterUnits="userSpaceOnUse" color-interpolation-filters="sRGB">
<feFlood flood-opacity="0" result="BackgroundImageFix"/>
<feBlend mode="normal" in="SourceGraphic" in2="BackgroundImageFix" result="shape"/>
<feGaussianBlur stdDeviation="50" result="effect1_foregroundBlur_280_23"/>
</filter>
<clipPath id="clip0_280_23">
<rect width="734.78" height="627.81" fill="white"/>
</clipPath>
</defs>
</svg>
