<?xml version="1.0" encoding="utf-8"?>
<!-- Generator: Adobe Illustrator 16.0.0, SVG Export Plug-In . SVG Version: 6.00 Build 0)  -->
<!DOCTYPE svg PUBLIC "-//W3C//DTD SVG 1.1//EN" "http://www.w3.org/Graphics/SVG/1.1/DTD/svg11.dtd">
<svg version="1.1" id="Layer_1" xmlns="http://www.w3.org/2000/svg" xmlns:xlink="http://www.w3.org/1999/xlink" x="0px" y="0px"
	 width="180px" height="180px" viewBox="0 0 180 180" enable-background="new 0 0 180 180" xml:space="preserve">
<polygon fill="none" stroke="#000000" stroke-miterlimit="10" points="11.974,159.5 12.407,159.75 89.916,25.5 166.992,159 
	11.974,159 11.974,159.5 12.407,159.75 11.974,159.5 11.974,160 168.725,160 89.916,23.5 11.107,160 11.974,160 "/>
<polygon fill="none" stroke="#000000" stroke-width="0.9858" stroke-miterlimit="10" points="97.25,157.797 97.631,157.484 
	49.438,98.737 123.567,86.514 96.788,157.623 97.25,157.797 97.631,157.484 97.25,157.797 97.711,157.971 125.093,85.263 
	47.593,98.042 97.41,158.77 97.711,157.971 "/>
<polyline fill="none" stroke="#000000" stroke-miterlimit="10" points="89.416,24.5 89.416,112.667 90.416,112.667 90.416,24.5 "/>
<polyline fill="none" stroke="#000000" stroke-miterlimit="10" points="89.658,112.239 11.716,159.072 12.231,159.929 
	90.174,113.096 "/>
<polyline fill="none" stroke="#000000" stroke-miterlimit="10" points="89.658,113.096 167.601,159.929 168.116,159.072 
	90.174,112.239 "/>
</svg>
