<svg width="64" height="65" viewBox="0 0 64 65" fill="none" xmlns="http://www.w3.org/2000/svg">
<g clip-path="url(#clip0_129_6986)">
<path d="M39.3334 49.4333C40.1334 46.7666 41.7334 44.3666 43.8667 42.4999C47.8667 39.1665 50.4001 34.0999 50.4001 28.4999C50.4001 18.0999 41.7335 9.56652 31.0667 10.0999C21.6 10.4999 13.8666 18.4999 13.6 27.9665C13.4666 33.8333 16 39.0333 20.1334 42.4999C22.4 44.3665 24 46.7665 24.8 49.4333H39.3334Z" fill="#FFD15C"/>
<path d="M30.2667 49.7001H31.4667L26.1333 29.8335H26.5333C27.1999 29.8335 27.8667 29.5669 28.3999 29.0335C28.6666 28.7669 28.9333 28.6335 29.3333 28.6335C29.7333 28.6335 29.9999 28.7669 30.2667 29.0335C31.2001 30.1001 32.8001 30.1001 33.7333 29.0335C33.9999 28.7669 34.2667 28.6335 34.6667 28.6335C34.9333 28.6335 35.3333 28.7669 35.6001 29.0335C36.1334 29.5669 36.6667 29.8335 37.4667 29.8335H37.8667L32.6667 49.7001H33.8667L39.3333 28.9001C39.3333 28.6335 39.3333 28.3668 39.0667 28.2335C38.8001 28.1001 38.5333 28.2335 38.4001 28.3669C38.1334 28.6335 37.8667 28.7669 37.6001 28.7669C37.2001 28.7669 36.9334 28.6335 36.5334 28.3669C36.0001 27.8335 35.4668 27.5669 34.8001 27.5669C34.1333 27.5669 33.6001 27.8335 33.0667 28.3669C32.5333 28.9003 31.7333 28.9003 31.2001 28.3669C30.8001 27.8335 30.1334 27.5669 29.4667 27.5669C28.8001 27.5669 28.1333 27.8335 27.7333 28.3669C27.4667 28.6335 27.0667 28.7669 26.6667 28.7669C26.4001 28.7669 26.0001 28.6335 25.8667 28.3669C25.7333 28.2335 25.4667 28.1003 25.2001 28.2335C24.9334 28.3669 24.8001 28.6335 24.9334 28.9001L30.2667 49.7001Z" fill="white"/>
<path d="M27.8667 61.7002C28.5334 63.3002 30.1334 64.5002 32.0001 64.5002C33.8667 64.5002 35.4667 63.3002 36.1334 61.7002H27.8667Z" fill="#344A5E"/>
<path d="M36.9334 61.8332H27.2001C26.8845 61.8345 26.5718 61.7733 26.2801 61.6532C25.9883 61.533 25.7232 61.3563 25.5001 61.1332C25.2769 60.9101 25.1002 60.645 24.9801 60.3532C24.8599 60.0614 24.7987 59.7487 24.8001 59.4332V49.2998H39.3334V59.4332C39.3334 60.7664 38.2667 61.8332 36.9334 61.8332Z" fill="#344A5E"/>
<path d="M39.2001 54.3668H24.8001C24.0001 54.3668 23.3335 53.7002 23.3335 52.9002C23.3335 52.1002 24.0001 51.4336 24.8001 51.4336H39.2001C40.0001 51.4336 40.6667 52.1002 40.6667 52.9002C40.6667 53.7002 40.0001 54.3668 39.2001 54.3668ZM39.2001 59.0336H24.8001C24.0001 59.0336 23.3335 58.367 23.3335 57.567C23.3335 56.767 24.0001 56.1003 24.8001 56.1003H39.2001C40.0001 56.1003 40.6667 56.767 40.6667 57.567C40.6667 58.3668 40.0001 59.0336 39.2001 59.0336Z" fill="#415A6B"/>
<path d="M32 0.5C31.3334 0.5 30.6667 1.03337 30.6667 1.83337V6.36675C30.6667 7.03337 31.2001 7.70013 32 7.70013C32.8 7.70013 33.3334 7.16675 33.3334 6.36675V1.83337C33.3334 1.03337 32.6667 0.5 32 0.5ZM14.1334 8.63338C13.6001 8.1 12.8001 8.1 12.2668 8.63338C11.7336 9.16675 11.7334 9.96675 12.2668 10.5L15.4668 13.7C16.0002 14.2334 16.8002 14.2334 17.3334 13.7C17.8667 13.1666 17.8668 12.3666 17.3334 11.8334L14.1334 8.63338ZM10.0001 27.0334H5.46668C4.80005 27.0334 4.1333 27.5668 4.1333 28.3668C4.1333 29.0334 4.66668 29.7001 5.46668 29.7001H10.0001C10.6667 29.7001 11.3334 29.1667 11.3334 28.3668C11.3334 27.7 10.6667 27.0334 10.0001 27.0334ZM15.4667 43.0334L12.2667 46.2334C11.7333 46.7668 11.7333 47.5667 12.2667 48.1C12.8001 48.6332 13.6001 48.6334 14.1333 48.1L17.3333 44.9C17.8667 44.3666 17.8667 43.5666 17.3333 43.0334C16.7999 42.5001 16.0001 42.5 15.4667 43.0334ZM48.5334 43.0334C48 42.5 47.2001 42.5 46.6667 43.0334C46.1333 43.5667 46.1333 44.3668 46.6667 44.9L49.8667 48.1C50.4001 48.6334 51.2001 48.6334 51.7333 48.1C52.2665 47.5666 52.2667 46.7666 51.7333 46.2334L48.5334 43.0334ZM58.5334 27.0334H54C53.3334 27.0334 52.6667 27.5668 52.6667 28.3668C52.6667 29.0334 53.2001 29.7001 54 29.7001H58.5334C59.2001 29.7001 59.8668 29.1667 59.8668 28.3668C59.8667 27.7 59.3334 27.0334 58.5334 27.0334ZM49.8667 8.63338L46.6667 11.8334C46.1333 12.3667 46.1333 13.1667 46.6667 13.7C47.2001 14.2334 48 14.2334 48.5333 13.7L51.7333 10.5C52.2667 9.96663 52.2667 9.16663 51.7333 8.63338C51.1999 8.10013 50.4001 8.1 49.8667 8.63338Z" fill="#FFD15C"/>
</g>
<defs>
<clipPath id="clip0_129_6986">
<rect width="64" height="64" fill="white" transform="translate(0 0.5)"/>
</clipPath>
</defs>
</svg>
