<svg width="53" height="52" viewBox="0 0 53 52" fill="none" xmlns="http://www.w3.org/2000/svg">
<path d="M14.7008 2.88916C10.4478 5.07064 6.87846 8.3822 4.38484 12.46C1.89122 16.5378 0.569856 21.224 0.565918 26.0038C0.571244 30.7824 1.89327 35.467 4.38681 39.5433C6.88035 43.6197 10.449 46.9301 14.7008 49.111V2.88916Z" fill="#0055D4"/>
<path d="M26.5679 0.00170898C22.439 0.00833436 18.3711 0.998118 14.7007 2.88915V49.111C18.3711 51.002 22.439 51.9918 26.5679 51.9984C30.6968 51.9918 34.7648 51.002 38.4352 49.111V2.87404C34.7635 0.988243 30.6956 0.00365776 26.5679 0.00170898Z" fill="#F2F2F2"/>
<path d="M38.4429 2.87401V49.1034C42.6947 46.9225 46.2633 43.6121 48.7569 39.5358C51.2504 35.4594 52.5724 30.7748 52.5777 25.9963C52.5766 21.2139 51.2565 16.5245 48.7628 12.4437C46.269 8.36303 42.6981 5.04911 38.4429 2.86646V2.87401Z" fill="#FF2A2A"/>
<path d="M14.7007 6.3208C11.3082 8.36585 8.50134 11.2524 6.55201 14.7008C4.60268 18.1492 3.57697 22.0426 3.57422 26.0038C3.57697 29.965 4.60268 33.8584 6.55201 37.3068C8.50134 40.7552 11.3082 43.6418 14.7007 45.6868V6.3208Z" fill="#0044AA"/>
<path d="M26.5679 2.99487C22.3833 3.00334 18.2802 4.15324 14.7007 6.32073V45.6867C18.2818 47.8489 22.3847 48.9936 26.5679 48.9975C30.7511 48.9936 34.8541 47.8489 38.4352 45.6867V6.30561C34.8533 4.14607 30.7504 2.9965 26.5679 2.99487Z" fill="#E6E6E6"/>
<path d="M38.4429 6.30565V45.6868C39.5851 44.9958 40.6651 44.2067 41.6705 43.3284C41.7134 43.2933 41.7563 43.2581 41.799 43.2226C41.8141 43.2075 41.8292 43.1924 41.8443 43.1773C42.1542 42.9033 42.4567 42.621 42.7514 42.3307C42.7716 42.3081 42.7917 42.2854 42.8118 42.2627C42.8371 42.2375 42.8623 42.2123 42.8874 42.1871C43.1616 41.9117 43.4288 41.6294 43.6887 41.3405C43.7932 41.2206 43.8965 41.0997 43.9986 40.9777C44.2261 40.7206 44.4479 40.4585 44.6637 40.1916C45.1622 39.5514 45.6265 38.8853 46.0545 38.1961C46.1391 38.0634 46.2222 37.9298 46.304 37.7954C46.4604 37.5339 46.6116 37.2693 46.7575 37.0018C46.861 36.8117 46.9618 36.6202 47.0599 36.4273C47.1961 36.1603 47.3272 35.8906 47.4529 35.6185C47.5387 35.4257 47.6219 35.2316 47.7023 35.0365C47.8265 34.7542 47.9449 34.4694 48.0576 34.1824L48.0652 34.1597C48.2294 33.7284 48.3807 33.2923 48.5187 32.852C48.5657 32.6988 48.611 32.5451 48.6548 32.3909C48.7594 32.0305 48.8551 31.6676 48.942 31.3025C48.9846 31.1165 49.0249 30.9301 49.0629 30.7431C49.136 30.407 49.2015 30.0693 49.2595 29.7302C49.2896 29.5391 49.3173 29.3476 49.3426 29.1558C49.3904 28.8191 49.4307 28.4814 49.4635 28.1429C49.4838 27.9416 49.5015 27.74 49.5165 27.5382C49.5512 27.0275 49.5688 26.5157 49.5694 26.0038C49.5672 25.5575 49.5521 25.1113 49.524 24.6659C49.524 24.6482 49.524 24.6306 49.524 24.613C49.5241 24.5853 49.5241 24.5575 49.524 24.5298C49.497 24.1232 49.4592 23.7174 49.4106 23.3129C49.4033 23.2574 49.3957 23.202 49.388 23.1466C49.2765 22.2508 49.1125 21.3624 48.8966 20.4859C48.7946 20.0747 48.6811 19.6663 48.5565 19.2614C48.5391 19.2008 48.5215 19.1404 48.5036 19.08C48.3719 18.6602 48.2282 18.2443 48.0727 17.8328C47.9202 17.4301 47.7563 17.0319 47.5814 16.6385C47.5539 16.5804 47.5262 16.5225 47.4983 16.4646C47.3382 16.1127 47.1694 15.7649 46.9918 15.4215C46.9569 15.3508 46.9216 15.2802 46.886 15.2099L46.8709 15.1948C46.6858 14.8446 46.4918 14.4993 46.2889 14.1592C46.2738 14.134 46.2587 14.1088 46.2435 14.0836C46.2209 14.0508 46.1982 14.018 46.1755 13.9854C45.9699 13.6473 45.7557 13.3146 45.533 12.9876C45.5179 12.9649 45.5028 12.9422 45.4876 12.9196C45.4751 12.9019 45.4625 12.8843 45.4498 12.8667C45.2121 12.5249 44.9651 12.1897 44.7091 11.8613C44.694 11.8412 44.6789 11.821 44.6637 11.8009C44.6436 11.7756 44.6235 11.7504 44.6033 11.7253C44.3354 11.3875 44.0582 11.0573 43.7718 10.7351C43.4834 10.4118 43.186 10.0967 42.8799 9.79024C42.8598 9.765 42.8396 9.73981 42.8194 9.71465C42.7967 9.69697 42.7741 9.67934 42.7514 9.66174C42.4424 9.35549 42.1248 9.05805 41.799 8.76981C41.4528 8.46183 41.0973 8.16438 40.7332 7.87788C40.3686 7.59459 39.9955 7.32236 39.6145 7.06153L39.5994 7.05397C39.2215 6.79049 38.8358 6.53842 38.4429 6.2981V6.30565Z" fill="#D40000"/>
</svg>
