<svg width="52" height="52" viewBox="0 0 52 52" fill="none" xmlns="http://www.w3.org/2000/svg">
<path d="M25.9963 0.00170898C19.1001 0.00170898 12.4863 2.74121 7.60999 7.61756C2.73364 12.4939 -0.00585937 19.1076 -0.00585938 26.0038C-0.00585937 32.9 2.73364 39.5138 7.60999 44.3901C12.4863 49.2665 19.1001 52.006 25.9963 52.006C29.4109 52.006 32.7921 51.3334 35.9468 50.0267C39.1016 48.7199 41.968 46.8046 44.3825 44.3901C46.7971 41.9756 48.7124 39.1091 50.0191 35.9544C51.3258 32.7997 51.9984 29.4185 51.9984 26.0038C51.9984 22.5892 51.3258 19.208 50.0191 16.0533C48.7124 12.8985 46.7971 10.0321 44.3825 7.61756C41.968 5.20303 39.1016 3.28773 35.9468 1.981C32.7921 0.674274 29.4109 0.00170898 25.9963 0.00170898Z" fill="#333333"/>
<path d="M1.50586 34.6663C3.29724 39.7314 6.61362 44.1173 10.9991 47.2209C15.3845 50.3246 20.6236 51.9936 25.9962 51.9985C31.3701 51.9951 36.6109 50.3269 40.9979 47.2231C45.3848 44.1194 48.7024 39.7326 50.4942 34.6663H1.50586Z" fill="#FFDD55"/>
<path d="M25.9961 2.99487C21.4237 2.99782 16.9559 4.3635 13.1632 6.91753C9.37051 9.47156 6.42512 13.098 4.70312 17.3338H47.3043C45.5801 13.097 42.6319 9.47054 38.8364 6.91773C35.0408 4.36492 30.5703 2.9942 25.9961 2.99487Z" fill="#09090B"/>
<path d="M4.70316 17.334C3.58133 20.0869 3.00377 23.0312 3.00244 26.0039C3.00474 28.9741 3.58229 31.9157 4.70316 34.6662H47.2968C48.4176 31.9157 48.9952 28.9741 48.9975 26.0039C48.9986 23.0317 48.4236 20.0874 47.3043 17.334H4.70316Z" fill="#D40000"/>
<path d="M4.70312 34.6663C6.4263 38.9007 9.37219 42.5255 13.1648 45.0781C16.9573 47.6308 21.4245 48.9953 25.9961 48.9977C30.569 48.9968 35.0379 47.633 38.8319 45.0803C42.626 42.5275 45.5731 38.9019 47.2967 34.6663H4.70312Z" fill="#FFCC00"/>
</svg>
