<svg width="53" height="52" viewBox="0 0 53 52" fill="none" xmlns="http://www.w3.org/2000/svg">
<path d="M26.425 0.00169974C19.5288 0.00169974 12.915 2.7412 8.0387 7.61755C3.16235 12.4939 0.422852 19.1076 0.422852 26.0038C0.424856 32.8987 3.16524 39.5105 8.04137 44.3852C12.9175 49.2599 19.5301 51.9984 26.425 51.9984C29.8396 51.9984 33.2208 51.3258 36.3756 50.0191C39.5303 48.7124 42.3967 46.7971 44.8113 44.3825C47.2258 41.968 49.1411 39.1016 50.4478 35.9468C51.7545 32.7921 52.4271 29.4109 52.4271 25.9963C52.4271 22.5816 51.7545 19.2004 50.4478 16.0457C49.1411 12.891 47.2258 10.0245 44.8113 7.60999C42.3967 5.19547 39.5303 3.28016 36.3756 1.97343C33.2208 0.666705 29.8396 -0.00585938 26.425 -0.00585938V0.00169974Z" fill="#F9F9F9"/>
<path d="M1.9346 17.334C0.942569 20.1147 0.431343 23.044 0.422852 25.9963C0.430485 28.9512 0.941723 31.8831 1.9346 34.6662H50.938C51.9232 31.8818 52.4268 28.9499 52.4271 25.9963C52.4259 23.0453 51.9223 20.116 50.938 17.334H1.9346Z" fill="#0055D4"/>
<path d="M1.92725 34.6663C3.71863 39.7314 7.03501 44.1173 11.4204 47.2209C15.8059 50.3246 21.045 51.9936 26.4176 51.9985C31.7941 51.9983 37.0383 50.3314 41.4282 47.2275C45.8182 44.1235 49.138 39.735 50.9307 34.6663H1.92725Z" fill="#FF5555"/>
<path d="M26.4249 2.99487C21.8524 2.99782 17.3846 4.3635 13.5919 6.91753C9.79922 9.47156 6.85383 13.098 5.13184 17.3338H47.733C46.0088 13.097 43.0606 9.47054 39.2651 6.91773C35.4695 4.36492 30.999 2.9942 26.4249 2.99487Z" fill="#F2F2F2"/>
<path d="M5.13187 17.334C4.011 20.0845 3.43346 23.0261 3.43115 25.9963C3.43248 28.969 4.01004 31.9133 5.13187 34.6662H47.7179C48.8397 31.9133 49.4173 28.969 49.4186 25.9963C49.4187 23.0266 48.8438 20.0851 47.7255 17.334H5.13187Z" fill="#0044AA"/>
<path d="M5.13184 34.6663C6.85501 38.9007 9.80091 42.5255 13.5935 45.0781C17.3861 47.6308 21.8533 48.9953 26.4249 48.9977C30.9977 48.9968 35.4666 47.633 39.2606 45.0803C43.0547 42.5275 46.0018 38.9019 47.7254 34.6663H5.13184Z" fill="#D40000"/>
</svg>
