<svg width="53" height="52" viewBox="0 0 53 52" fill="none" xmlns="http://www.w3.org/2000/svg">
<path d="M26.1164 0.00171008C19.2289 0.00371374 12.624 2.74067 7.75373 7.61091C2.88349 12.4812 0.146535 19.086 0.144531 25.9736C0.144531 29.3859 0.816759 32.7648 2.12282 35.9173C3.42888 39.0697 5.34319 41.934 7.75641 44.3465C10.1696 46.759 13.0345 48.6725 16.1873 49.9777C19.3402 51.2828 22.7192 51.954 26.1315 51.9531C29.5432 51.9531 32.9215 51.2811 36.0734 49.9755C39.2254 48.6699 42.0894 46.7563 44.5018 44.3438C46.9142 41.9314 48.8278 39.0675 50.1334 35.9155C51.439 32.7635 52.111 29.3853 52.111 25.9736C52.11 22.5619 51.437 19.1839 50.1305 16.0323C48.824 12.8807 46.9095 10.0173 44.4964 7.60557C42.0833 5.19386 39.2188 3.28106 36.0665 1.97639C32.9141 0.671713 29.5281 0.00071731 26.1164 0.00171008Z" fill="#FF2A2A"/>
<path d="M1.6414 17.3264C0.653201 20.1026 0.144546 23.0268 0.137207 25.9736C0.145257 28.926 0.656495 31.8554 1.64896 34.636H50.5995C51.5919 31.8554 52.1032 28.926 52.1112 25.9736C52.1096 23.0251 51.606 20.0984 50.6221 17.3188L1.6414 17.3264Z" fill="#FFD42A"/>
<path d="M26.1168 2.99487C21.5471 2.99718 17.0818 4.36194 13.2916 6.91475C9.50147 9.46756 6.55852 13.0925 4.83887 17.3263H47.4098C45.6896 13.0913 42.7455 9.46555 38.9539 6.91264C35.1622 4.35973 30.6878 2.99568 26.1168 2.99487ZM4.83887 34.6434C6.56018 38.877 9.5048 42.5011 13.2964 45.0526C17.0879 47.6041 21.5542 48.967 26.1243 48.9672C30.6932 48.9655 35.1578 47.6019 38.9479 45.0505C42.7379 42.4991 45.6814 38.8758 47.4022 34.6434H4.83887Z" fill="#D40000"/>
<path d="M4.8389 17.3264C3.71939 20.0721 3.14187 23.0085 3.13818 25.9736C3.13991 28.9439 3.71748 31.8856 4.8389 34.636H47.4023C48.5237 31.8856 49.1013 28.9439 49.103 25.9736C49.1027 23.0064 48.5277 20.0674 47.4098 17.3188L4.8389 17.3264Z" fill="#FFCC00"/>
<path d="M13.4556 23.1543H22.0196L22.0272 29.3525C22.0272 31.7108 19.9863 33.6232 17.4541 33.6232C15.0958 33.472 13.3044 31.5596 13.4707 29.3525L13.4556 23.1543Z" fill="white"/>
<path d="M13.4556 23.1543H17.7414V27.5384H13.4556V23.1543Z" fill="#D40000"/>
<path d="M17.7417 23.1543H22.02V27.5384H17.7417V23.1543Z" fill="white"/>
<path d="M13.4634 27.5459V29.9118C13.5229 30.5805 13.7501 31.2234 14.124 31.7809C14.4979 32.3385 15.0064 32.7927 15.6025 33.1016C16.2 32.7937 16.71 32.3399 17.0853 31.7822C17.4606 31.2246 17.6889 30.5812 17.7492 29.9118L17.7341 27.5459H13.4634ZM17.7341 27.5459L17.7492 29.9118C17.8064 30.557 18.0201 31.1785 18.3718 31.7225C18.7235 32.2665 19.2025 32.7165 19.7674 33.0336C20.4265 32.6897 20.9832 32.1782 21.3813 31.5504C21.7794 30.9227 22.0049 30.201 22.035 29.4583L22.0199 27.5459H17.7341Z" fill="#D40000"/>
<path d="M14.2796 24.0688H16.9252C17.0131 24.0714 17.0969 24.1185 17.1589 24.2002C17.2209 24.2819 17.2563 24.392 17.2578 24.5073V26.1853C17.2586 26.2445 17.2503 26.3033 17.2336 26.3583C17.2168 26.4133 17.1919 26.4633 17.1602 26.5055C17.1286 26.5478 17.0908 26.5813 17.0492 26.6042C17.0075 26.6271 16.9628 26.6388 16.9177 26.6388H14.2721C14.1822 26.6362 14.0967 26.5871 14.0344 26.5021C13.9721 26.4171 13.938 26.3032 13.9395 26.1853V24.5073C13.941 24.3903 13.9775 24.2788 14.0411 24.1968C14.1048 24.1148 14.1904 24.0688 14.2796 24.0688Z" fill="#FFCC00"/>
<path d="M14.9146 26.6312H16.2827V25.641C16.2827 25.263 15.9577 24.9607 15.5495 24.9607C15.1716 24.9834 14.8919 25.2857 14.9146 25.641V26.6312ZM8.27801 32.5497H11.8987C11.9622 32.5516 12.0226 32.5777 12.0676 32.6226C12.1125 32.6676 12.1386 32.728 12.1405 32.7916V33.4341C12.1386 33.4976 12.1125 33.558 12.0676 33.603C12.0226 33.6479 11.9622 33.674 11.8987 33.6759H8.27801C8.21446 33.674 8.15404 33.6479 8.10908 33.603C8.06412 33.558 8.03803 33.4976 8.03613 33.4341V32.7916C8.03803 32.728 8.06412 32.6676 8.10908 32.6226C8.15404 32.5777 8.21446 32.5516 8.27801 32.5497Z" fill="#0044AA"/>
<path d="M8.89766 31.8091H11.2787C11.3388 31.8091 11.3965 31.833 11.439 31.8755C11.4815 31.918 11.5054 31.9757 11.5054 32.0358V32.5498H8.6709V32.0358C8.6709 31.9757 8.69479 31.918 8.73732 31.8755C8.77984 31.833 8.83752 31.8091 8.89766 31.8091Z" fill="#FFE680"/>
<path d="M11.1275 23.1619H9.04883V31.8091H11.1275V23.1619Z" fill="white"/>
<path d="M10.0617 21.6425C9.79101 21.6484 9.5334 21.7601 9.34407 21.9537C9.15475 22.1473 9.04876 22.4073 9.04883 22.6781V23.1618H11.1275V22.6781C11.067 21.8466 10.4926 21.6047 10.0617 21.6425ZM19.6764 23.8345H20.0771C20.5533 23.8345 20.9312 24.1898 20.9312 24.6282V26.0644C20.9312 26.5103 20.5533 26.8656 20.0771 26.8656H19.6764C19.2078 26.8656 18.8223 26.5103 18.8223 26.0719V24.6358C18.8223 24.1822 19.2002 23.8345 19.6764 23.8345ZM14.4231 22.3228H21.2487L22.2691 18.3167L20.0544 20.0325L17.7792 18.3167L15.5267 20.0325L13.2213 18.3167L14.4231 22.3228Z" fill="#D40000"/>
<path d="M18.6863 27.9238H21.2714V30.0478C21.2714 30.8566 20.6515 31.5142 19.8881 31.5142C19.1776 31.4689 18.6409 30.8113 18.6863 30.0478V27.9238Z" fill="#FFCC00"/>
<path d="M23.5922 32.5498H27.2053C27.2702 32.5498 27.3325 32.575 27.3791 32.6202C27.4256 32.6653 27.4528 32.7268 27.4547 32.7917V33.4342C27.4528 33.499 27.4256 33.5605 27.3791 33.6057C27.3325 33.6509 27.2702 33.6761 27.2053 33.6761H23.5922C23.5273 33.6761 23.465 33.6509 23.4185 33.6057C23.3719 33.5605 23.3447 33.499 23.3428 33.4342V32.7917C23.3447 32.7268 23.3719 32.6653 23.4185 32.6202C23.465 32.575 23.5273 32.5498 23.5922 32.5498Z" fill="#0044AA"/>
<path d="M24.2043 31.8091H26.5853C26.6454 31.8091 26.7031 31.833 26.7457 31.8755C26.7882 31.918 26.8121 31.9757 26.8121 32.0358V32.5498H23.9775V32.0358C23.9775 31.9757 24.0014 31.918 24.044 31.8755C24.0865 31.833 24.1442 31.8091 24.2043 31.8091Z" fill="#FFE680"/>
<path d="M26.4341 23.1619H24.3555V31.8091H26.4341V23.1619Z" fill="white"/>
<path d="M13.4556 27.5459L13.4707 29.3524V29.9118C13.516 30.5392 13.7126 31.1212 14.0376 31.6427V27.5459H13.4556ZM17.1594 27.5459V31.6654C17.4726 31.172 17.6691 30.6136 17.7338 30.0327V27.5459H17.1594ZM15.9273 27.5459V32.9126C16.1318 32.776 16.3241 32.6217 16.5017 32.4515V27.5459H15.9273ZM14.6952 27.5459V32.4364C14.8691 32.6027 15.0656 32.7539 15.2697 32.8899V27.5459H14.6952Z" fill="#FFE680"/>
<path d="M16.5546 26.9185H18.9432V28.6494C18.9432 29.307 18.3763 29.8437 17.6658 29.8437C17.0081 29.7983 16.5093 29.2692 16.5546 28.6494V26.9185Z" fill="#D40000"/>
<path d="M16.8042 27.2283H18.6863V28.5889C18.6863 29.1104 18.2328 29.5261 17.6886 29.5261C17.1595 29.4959 16.774 29.0726 16.8118 28.5889L16.8042 27.2283Z" fill="#0044AA"/>
<path d="M25.3608 21.6424C25.0914 21.6503 24.8357 21.7628 24.648 21.9562C24.4603 22.1496 24.3554 22.4085 24.3555 22.678V23.1617H26.4341V22.678C26.3737 21.8465 25.7916 21.6046 25.3608 21.6424Z" fill="#D40000"/>
</svg>
