<svg width="53" height="52" viewBox="0 0 53 52" fill="none" xmlns="http://www.w3.org/2000/svg">
<path d="M26.8532 0.00169974C19.957 0.00169974 13.3433 2.7412 8.46692 7.61755C3.59058 12.4939 0.851074 19.1076 0.851074 26.0038C0.853079 32.8987 3.59347 39.5105 8.46959 44.3852C13.3457 49.2599 19.9583 51.9984 26.8532 51.9984C30.2678 51.9984 33.6491 51.3258 36.8038 50.0191C39.9585 48.7124 42.825 46.7971 45.2395 44.3825C47.654 41.968 49.5693 39.1016 50.876 35.9468C52.1828 32.7921 52.8553 29.4109 52.8553 25.9963C52.8553 22.5816 52.1828 19.2004 50.876 16.0457C49.5693 12.891 47.654 10.0245 45.2395 7.60999C42.825 5.19547 39.9585 3.28016 36.8038 1.97343C33.6491 0.666705 30.2678 -0.00585938 26.8532 -0.00585938V0.00169974Z" fill="#FC0816"/>
<path d="M26.8531 2.99487C20.7541 2.99688 14.9056 5.42111 10.5936 9.73447C6.28168 14.0478 3.85937 19.8972 3.85938 25.9962C3.85937 32.0952 6.28168 37.9445 10.5936 42.2579C14.9056 46.5712 20.7541 48.9955 26.8531 48.9975C29.8737 48.9975 32.8647 48.4025 35.6553 47.2466C38.446 46.0907 40.9816 44.3964 43.1175 42.2605C45.2534 40.1247 46.9476 37.589 48.1035 34.7984C49.2595 32.0077 49.8544 29.0167 49.8544 25.9962C49.8524 19.8972 47.4282 14.0486 43.1148 9.73668C38.8015 5.42474 32.9521 2.99487 26.8531 2.99487Z" fill="#EB0016"/>
<path d="M37.4204 29.7152L33.3916 28.2337L30.7461 31.62L30.9124 27.3266L26.876 25.8602L31.0106 24.6886L31.1618 20.3953L33.5428 23.963L37.6774 22.7763L35.0168 26.155L37.4204 29.7152Z" fill="white"/>
<path d="M18.0624 13.9854C14.8775 13.9894 11.8245 15.2573 9.57385 17.5108C7.32323 19.7643 6.05908 22.8189 6.05908 26.0038C6.06308 29.186 7.329 32.2368 9.57919 34.487C11.8294 36.7372 14.8801 38.0031 18.0624 38.0071C19.8068 38.0051 21.5298 37.6234 23.1118 36.8885C24.6938 36.1536 26.0969 35.0832 27.2236 33.7515C25.546 35.0076 23.5067 35.6865 21.4109 35.6865C18.8402 35.6845 16.3754 34.6619 14.5584 32.8434C12.7413 31.0249 11.7206 28.5594 11.7206 25.9887C11.7226 23.4179 12.7452 20.9532 14.5637 19.1361C16.3822 17.319 18.8477 16.2983 21.4185 16.2983C23.528 16.3005 25.5793 16.9905 27.2614 18.2636C26.1336 16.9239 24.7266 15.8469 23.1389 15.1079C21.5512 14.3688 19.8212 13.9857 18.0699 13.9854H18.0624Z" fill="white"/>
</svg>
