<svg width="53" height="52" viewBox="0 0 53 52" fill="none" xmlns="http://www.w3.org/2000/svg">
<path d="M26.7106 0.00170898C19.8144 0.00170898 13.2007 2.74121 8.32434 7.61756C3.448 12.4939 0.708496 19.1076 0.708496 26.0038C0.708496 32.9 3.448 39.5138 8.32434 44.3901C13.2007 49.2665 19.8144 52.006 26.7106 52.006C30.1253 52.006 33.5065 51.3334 36.6612 50.0267C39.8159 48.7199 42.6824 46.8046 45.0969 44.3901C47.5114 41.9756 49.4267 39.1091 50.7335 35.9544C52.0402 32.7997 52.7127 29.4185 52.7127 26.0038C52.7127 22.5892 52.0402 19.208 50.7335 16.0533C49.4267 12.8985 47.5114 10.0321 45.0969 7.61756C42.6824 5.20303 39.8159 3.28773 36.6612 1.981C33.5065 0.674274 30.1253 0.00170898 26.7106 0.00170898Z" fill="#F9F9F9"/>
<path d="M26.7104 0.00170898C21.8202 0.0087434 17.0312 1.39464 12.893 4.00029H40.558C36.4134 1.39054 31.6158 0.00447627 26.718 0.00170898H26.7104ZM7.96468 7.99887C6.78797 9.22814 5.73477 10.57 4.82023 12.005H48.6157C47.7011 10.57 46.6479 9.22814 45.4712 7.99887H7.96468ZM2.72646 16.0036C2.18328 17.299 1.74597 18.6362 1.41879 20.0022H52.0096C51.6848 18.6364 51.2501 17.2992 50.7095 16.0036H2.72646ZM0.791417 24.0008C0.740485 24.6672 0.71527 25.3354 0.715829 26.0038C0.715464 26.6697 0.740679 27.3354 0.791417 27.9993H52.6294C52.6826 27.3355 52.7104 26.6698 52.7125 26.0038C52.7131 25.3354 52.6879 24.6672 52.6369 24.0008H0.791417ZM1.41879 31.9979C1.74557 33.3665 2.1829 34.7063 2.72646 36.0041H50.6943C51.2379 34.7063 51.6752 33.3665 52.002 31.9979H1.41879ZM4.82023 40.0102C5.73797 41.4404 6.79368 42.7771 7.97224 44.0012H45.4486C46.6275 42.7747 47.6832 41.4354 48.6006 40.0027L4.82023 40.0102ZM12.893 47.9998C17.0304 50.6081 21.8195 51.9967 26.7104 52.006C31.6039 51.9981 36.3958 50.6095 40.5354 47.9998H12.893Z" fill="#FF2A2A"/>
<path d="M26.7106 0.00170898C19.8144 0.00170898 13.2007 2.74121 8.32435 7.61756C3.448 12.4939 0.7085 19.1076 0.7085 26.0038C0.708135 26.6697 0.733349 27.3354 0.784088 27.9993H26.7106V0.00170898Z" fill="#003380"/>
<path d="M26.7106 2.99487V27.9992H3.80762C4.19496 32.4471 5.86839 36.686 8.62377 40.199C11.3792 43.712 15.0974 46.3472 19.3249 47.7831C23.5523 49.2189 28.1063 49.3934 32.4313 48.2852C36.7562 47.1771 40.6652 44.8342 43.6813 41.5423C46.6974 38.2505 48.6903 34.152 49.4169 29.7468C50.1434 25.3417 49.5722 20.8203 47.773 16.7342C45.9737 12.6482 43.0242 9.17405 39.2842 6.73571C35.5441 4.29736 31.1753 2.99263 26.7106 2.99487Z" fill="#F2F2F2"/>
<path d="M26.7105 2.99487C24.4433 2.99846 22.1891 3.33723 20.021 4.00019H33.4152C31.2418 3.33831 28.9824 2.99452 26.7105 2.99487ZM12.4018 7.99877C10.9388 9.1673 9.6239 10.5101 8.48637 11.9974H44.9574C43.8152 10.5092 42.4952 9.16636 41.0268 7.99877H12.4018ZM5.99954 16.0111C5.38598 17.293 4.89255 18.6291 4.52558 20.0021H48.9182C48.5443 18.6257 48.0433 17.2871 47.4215 16.0035L5.99954 16.0111ZM3.8075 24.0007C3.74816 24.6667 3.7179 25.335 3.7168 26.0037C3.71812 26.6699 3.74838 27.3357 3.8075 27.9992H49.6136C49.6752 27.3358 49.708 26.67 49.7118 26.0037C49.7107 25.335 49.6805 24.6667 49.6211 24.0007H3.8075ZM4.52558 31.9978C4.8921 33.3734 5.38554 34.712 5.99954 35.9964H47.4215C48.0381 34.7123 48.5341 33.3737 48.903 31.9978H4.52558ZM8.48637 40.0101C9.62438 41.4947 10.9392 42.8349 12.4018 44.0011H41.0268C42.4899 42.8326 43.8047 41.4898 44.9423 40.0025L8.48637 40.0101ZM20.021 47.9997C22.1895 48.6601 24.4437 48.9963 26.7105 48.9975C28.9799 48.9971 31.2367 48.6609 33.4076 47.9997H20.021Z" fill="#D40000"/>
<path d="M26.7105 2.99487C23.69 2.99587 20.6992 3.59179 17.9089 4.74863C15.1186 5.90547 12.5835 7.60057 10.4484 9.73714C8.31321 11.8737 6.61978 14.4099 5.46477 17.2009C4.30977 19.992 3.71581 22.9832 3.7168 26.0037C3.71812 26.6699 3.74838 27.3357 3.8075 27.9992H26.7105V2.99487Z" fill="#002255"/>
<path d="M22.1829 3.46362C21.7134 3.55989 21.2471 3.67081 20.7845 3.79621L20.5124 4.67302L21.4573 4.00029L22.3945 4.67302L22.0468 3.56945L22.1829 3.46362ZM14.2084 7.16741L13.838 8.25588L12.6891 8.27099L13.6113 8.95128L13.2636 10.0549L14.2084 9.38969L15.1457 10.07L14.798 8.95884L15.7353 8.27099L14.5788 8.25588L14.2084 7.16741ZM18.857 7.16741L18.4867 8.25588L17.3302 8.27099L18.2599 8.95128L17.9122 10.0549L18.8495 9.38969L19.7868 10.07L19.4466 8.95884L20.3763 8.27099L19.2199 8.25588L18.857 7.16741ZM23.4981 7.16741L23.1277 8.25588L21.9712 8.27099L22.901 8.95128L22.5533 10.0549L23.4981 9.38969L24.4354 10.07L24.0877 8.95884L25.0174 8.27099L23.8609 8.25588L23.4981 7.16741ZM10.4215 9.79786C10.3785 9.83801 10.3356 9.87832 10.293 9.9188L10.5046 10.07L10.4215 9.79786ZM9.56732 12.5568L9.2045 13.6528H8.04801L8.97018 14.3482L8.62248 15.4443L9.55977 14.7791L10.5046 15.4518L10.1569 14.3482L11.0866 13.6679L9.93015 13.6528L9.56732 12.5568ZM14.2084 12.5568L13.838 13.6528H12.6891L13.6113 14.3482L13.2636 15.4443L14.2084 14.7791L15.1457 15.4518L14.798 14.3482L15.7353 13.6679L14.5788 13.6528L14.2084 12.5568ZM18.857 12.5568L18.4867 13.6528H17.3302L18.2599 14.3482L17.9122 15.4443L18.8495 14.7791L19.7868 15.4518L19.4466 14.3482L20.3763 13.6679L19.2199 13.6528L18.857 12.5568ZM23.4981 12.5568L23.1277 13.6528H21.9712L22.901 14.3482L22.5533 15.4443L23.4981 14.7791L24.4354 15.4518L24.0877 14.3482L25.0174 13.6679L23.8609 13.6528L23.4981 12.5568ZM9.56732 17.9462L9.2045 19.0347L8.04801 19.0422L8.97018 19.7376L8.62248 20.8336L9.55977 20.1685L10.5046 20.8412L10.1569 19.7376L11.0866 19.0573L9.93015 19.0347L9.56732 17.9462ZM14.2084 17.9462L13.838 19.0347L12.6891 19.0422L13.6113 19.7376L13.2636 20.8336L14.2084 20.1685L15.1457 20.8412L14.798 19.7376L15.7353 19.0573L14.5788 19.0347L14.2084 17.9462ZM18.857 17.9462L18.4867 19.0347L17.3302 19.0422L18.2599 19.7376L17.9122 20.8336L18.8495 20.1685L19.7868 20.8412L19.4466 19.7376L20.3763 19.0573L19.2199 19.0347L18.857 17.9462ZM23.4981 17.9462L23.1277 19.0347L21.9712 19.0422L22.901 19.7376L22.5533 20.8336L23.4981 20.1685L24.4354 20.8412L24.0877 19.7376L25.0174 19.0573L23.8609 19.0347L23.4981 17.9462ZM5.05475 18.3241C4.79299 19.0556 4.56846 19.7998 4.38202 20.554L4.91869 20.176L5.86353 20.8412L5.51583 19.7376L6.44556 19.0573L5.28907 19.0347L5.05475 18.3241ZM7.24679 23.3356L6.87641 24.4241L5.71992 24.4316L6.64964 25.127L6.30194 26.223L7.24679 25.5579L8.18407 26.2306L7.83637 25.127L8.7661 24.4392L7.60961 24.4241L7.24679 23.3356ZM11.9786 23.3356L11.6157 24.4241L10.4668 24.4316L11.389 25.127L11.0413 26.223L11.9786 25.5579L12.9234 26.2306L12.5757 25.127L13.5054 24.4392L12.3489 24.4241L11.9786 23.3356ZM16.7255 23.3356L16.3475 24.4241L15.1986 24.4316L16.1283 25.127L15.7731 26.223L16.7179 25.5579L17.6552 26.2306L17.3151 25.127L18.2448 24.4392L17.0883 24.4241L16.7255 23.3356ZM21.4573 23.3356L21.0869 24.4241L19.9304 24.4316L20.8601 25.127L20.5124 26.223L21.4573 25.5579L22.3945 26.2306L22.0468 25.127L22.9766 24.4392L21.8276 24.4241L21.4573 23.3356ZM3.76976 24.4316C3.76946 24.4996 3.76946 24.5677 3.76976 24.6357L4.02676 24.4392L3.76976 24.4316Z" fill="white"/>
</svg>
