<svg width="53" height="52" viewBox="0 0 53 52" fill="none" xmlns="http://www.w3.org/2000/svg">
<path d="M26.2819 0.00169974C19.3857 0.00169974 12.772 2.7412 7.89563 7.61755C3.01929 12.4939 0.279785 19.1076 0.279785 26.0038C0.281789 32.8987 3.02218 39.5105 7.8983 44.3852C12.7744 49.2599 19.387 51.9984 26.2819 51.9984C29.6966 51.9984 33.0778 51.3258 36.2325 50.0191C39.3872 48.7124 42.2537 46.7971 44.6682 44.3825C47.0827 41.968 48.998 39.1016 50.3047 35.9468C51.6115 32.7921 52.284 29.4109 52.284 25.9963C52.284 22.5816 51.6115 19.2004 50.3047 16.0457C48.998 12.891 47.0827 10.0245 44.6682 7.60999C42.2537 5.19547 39.3872 3.28016 36.2325 1.97343C33.0778 0.666705 29.6966 -0.00585938 26.2819 -0.00585938V0.00169974Z" fill="#EE0000"/>
<path d="M26.2818 2.99487C20.1828 2.99688 14.3343 5.42111 10.0223 9.73447C5.71039 14.0478 3.28809 19.8972 3.28809 25.9962C3.28809 32.0952 5.71039 37.9445 10.0223 42.2579C14.3343 46.5712 20.1828 48.9955 26.2818 48.9975C29.3024 48.9975 32.2934 48.4025 35.084 47.2466C37.8747 46.0907 40.4103 44.3964 42.5462 42.2605C44.6821 40.1247 46.3763 37.589 47.5323 34.7984C48.6882 32.0077 49.2831 29.0167 49.2831 25.9962C49.2811 19.8972 46.8569 14.0486 42.5435 9.73668C38.2302 5.42474 32.3808 2.99487 26.2818 2.99487Z" fill="#D40000"/>
<path d="M34.9292 39.3525L26.2669 32.852L17.5894 39.3147L21.0816 29.0726L12.2529 22.814L23.0771 22.9652L26.2971 12.6399L29.4945 22.9803L40.3186 22.8745L31.4673 29.1029L34.9292 39.3525Z" fill="#FFFF00"/>
</svg>
